<svg xmlns="http://www.w3.org/2000/svg" width="22.748" height="22.83" viewBox="0 0 22.748 22.83">
  <path id="search-01" d="M22.583,21.709,17.54,16.666a9.947,9.947,0,0,0,2.521-6.687A10.426,10.426,0,0,0,17.1,2.853a10.261,10.261,0,0,0-14.252,0A10.12,10.12,0,0,0,0,9.979,10.426,10.426,0,0,0,2.96,17.1a9.953,9.953,0,0,0,13.7.439l5.043,5.043a.548.548,0,0,0,.877,0A.667.667,0,0,0,22.583,21.709ZM3.727,16.227A8.985,8.985,0,0,1,1.1,9.979,8.691,8.691,0,0,1,3.618,3.73a8.866,8.866,0,0,1,12.607,0,9.245,9.245,0,0,1,2.631,6.358,8.691,8.691,0,0,1-2.521,6.249A8.967,8.967,0,0,1,3.727,16.227Z" transform="translate(0 0.025)"/>
</svg>
